<svg xmlns="http://www.w3.org/2000/svg" width="81" height="20" viewBox="0 0 81 20" role="img" aria-labelledby="title">
<title id="title">Email ↗</title>
<defs><clipPath id="rounded"><rect width="81" height="20" rx="2"/></clipPath></defs>
<g clip-path="url(#rounded)"><rect width="59" height="20" fill="#555"/><rect x="59" width="22" height="20" fill="#FF7A1A"/></g>
<g transform="translate(5 4) scale(0.046875)" fill="#FFFFFF"><path xmlns="http://www.w3.org/2000/svg" fill="#FFFFFF" d="M224 48H32a8 8 0 0 0-8 8v136a16 16 0 0 0 16 16h176a16 16 0 0 0 16-16V56a8 8 0 0 0-8-8m-8 144H40V74.19l82.59 75.71a8 8 0 0 0 10.82 0L216 74.19z" /></g><text x="24" y="14" fill="#FFFFFF" font-family="Verdana, Arial, sans-serif" font-size="11">Email</text>
<path d="M66 13l8-8m-7 0h7v7" fill="none" stroke="#1F2328" stroke-width="1.4" stroke-linecap="round" stroke-linejoin="round"/>
</svg>
